<?xml version="1.0" encoding="UTF-8" standalone="no"?>
<!-- Created with Inkscape (http://www.inkscape.org/) -->

<svg
   xmlns:dc="http://purl.org/dc/elements/1.1/"
   xmlns:cc="http://creativecommons.org/ns#"
   xmlns:rdf="http://www.w3.org/1999/02/22-rdf-syntax-ns#"
   xmlns:svg="http://www.w3.org/2000/svg"
   xmlns="http://www.w3.org/2000/svg"
   xmlns:sodipodi="http://sodipodi.sourceforge.net/DTD/sodipodi-0.dtd"
   xmlns:inkscape="http://www.inkscape.org/namespaces/inkscape"
   width="75"
   height="75"
   id="svg2"
   version="1.1"
   inkscape:version="0.47 r22583"
   sodipodi:docname="favicon.svg"
   inkscape:export-filename="/home/christoph/dokumente/projekte/cjklib/trunk/characterdb/favicon.ico.png"
   inkscape:export-xdpi="19.200001"
   inkscape:export-ydpi="19.200001">
  <defs
     id="defs4">
    <inkscape:perspective
       sodipodi:type="inkscape:persp3d"
       inkscape:vp_x="0 : 526.18109 : 1"
       inkscape:vp_y="0 : 1000 : 0"
       inkscape:vp_z="744.09448 : 526.18109 : 1"
       inkscape:persp3d-origin="372.04724 : 350.78739 : 1"
       id="perspective10" />
    <inkscape:perspective
       id="perspective4431"
       inkscape:persp3d-origin="0.5 : 0.33333333 : 1"
       inkscape:vp_z="1 : 0.5 : 1"
       inkscape:vp_y="0 : 1000 : 0"
       inkscape:vp_x="0 : 0.5 : 1"
       sodipodi:type="inkscape:persp3d" />
    <inkscape:perspective
       id="perspective4456"
       inkscape:persp3d-origin="0.5 : 0.33333333 : 1"
       inkscape:vp_z="1 : 0.5 : 1"
       inkscape:vp_y="0 : 1000 : 0"
       inkscape:vp_x="0 : 0.5 : 1"
       sodipodi:type="inkscape:persp3d" />
  </defs>
  <sodipodi:namedview
     id="base"
     pagecolor="#ffffff"
     bordercolor="#666666"
     borderopacity="1.0"
     inkscape:pageopacity="0.0"
     inkscape:pageshadow="2"
     inkscape:zoom="3.0496493"
     inkscape:cx="42.835569"
     inkscape:cy="59.110858"
     inkscape:document-units="px"
     inkscape:current-layer="layer1"
     showgrid="false"
     inkscape:window-width="1016"
     inkscape:window-height="701"
     inkscape:window-x="0"
     inkscape:window-y="0"
     inkscape:window-maximized="1" />
  <metadata
     id="metadata7">
    <rdf:RDF>
      <cc:Work
         rdf:about="">
        <dc:format>image/svg+xml</dc:format>
        <dc:type
           rdf:resource="http://purl.org/dc/dcmitype/StillImage" />
        <dc:title></dc:title>
      </cc:Work>
    </rdf:RDF>
  </metadata>
  <g
     inkscape:label="Ebene 1"
     inkscape:groupmode="layer"
     id="layer1"
     transform="translate(-113.67379,-51.615158)">
    <path
       style="fill:#ffffff;fill-opacity:1;stroke:none;stroke-width:1.6;stroke-miterlimit:4;stroke-dasharray:none"
       d="m 113.37734,51.605045 75.5929,0 0,75.020225 -75.5929,0 0,-75.020225 z"
       id="rect3621" />
    <g
       transform="matrix(0.91817014,0,0,0.91817014,12.37053,8.5499899)"
       style="font-size:80px;font-style:normal;font-variant:normal;font-weight:normal;font-stretch:normal;text-align:start;line-height:125%;writing-mode:lr-tb;text-anchor:start;fill:#343434;fill-opacity:1;stroke:#343434;stroke-width:1.74259641999999992;stroke-miterlimit:4;stroke-opacity:1;font-family:Baekmuk Gulim;-inkscape-font-specification:Baekmuk Gulim;stroke-dasharray:none"
       id="text2816">
      <path
         d="m 125.41379,75.235157 c -1e-5,-0.639961 0.23999,-1.093294 0.72,-1.36 l -0.08,0 c 0.37332,-0.373294 0.85332,-0.55996 1.44,-0.56 l 42.88,0 c 1.27994,4e-5 2.37327,0.32004 3.28,0.96 1.0666,0.746705 1.59994,1.680037 1.6,2.8 -6e-5,1.440035 -0.98673,2.7467 -2.96,3.92 -0.32006,0.160032 -0.77339,0.373365 -1.36,0.64 -0.58673,0.213365 -1.20006,0.453364 -1.84,0.72 l -0.32,-0.64 c -0.32006,0.160031 -0.80006,0.400031 -1.44,0.72 -0.64006,0.266697 -1.30672,0.56003 -2,0.88 -0.64005,0.32003 -1.22672,0.613363 -1.76,0.88 -0.53339,0.266695 -0.85338,0.426695 -0.96,0.48 -1.86672,0.640028 -3.41338,1.173361 -4.64,1.6 -1.17338,0.426693 -2.08004,0.77336 -2.72,1.04 -2.77337,1.013358 -4.53337,1.573358 -5.28,1.68 -0.48004,0.106691 -0.88004,0.346691 -1.2,0.72 l 9.6,7.2 26.64,0 c 0.42659,1.6e-5 0.77326,0.186683 1.04,0.56 l 0,-0.08 c 0.37326,0.373349 0.55992,0.853348 0.56,1.44 -8e-5,0.74668 -0.24008,1.253343 -0.72,1.520003 l 0.08,0 c -0.26674,0.26668 -0.69341,0.40001 -1.28,0.4 l -24.96,0 c 0.21328,0.74668 0.39995,1.46667 0.56,2.16 0.15995,0.64001 0.29328,1.25334 0.4,1.84 0.10662,0.74667 0.18662,1.44 0.24,2.08 0.10662,0.58667 0.15995,1.14667 0.16,1.68 -5e-5,4.8 -1.30672,8.53333 -3.92,11.2 -1.33338,1.33332 -2.90671,2.29332 -4.72,2.88 -1.81337,0.63999 -3.89337,0.98665 -6.24,1.04 -2.0267,-0.10668 -4.4267,-0.45335 -7.2,-1.04 -0.74669,-0.16001 -1.36003,-0.29335 -1.84,-0.4 -0.48003,-0.10668 -0.88003,-0.21335 -1.2,-0.32 -0.32002,-0.0533 -0.61336,-0.13334 -0.88,-0.24 -0.26669,-0.0533 -0.58669,-0.13334 -0.96,-0.24 -1.17336,-0.37334 -1.76002,-0.74668 -1.76,-1.12 -2e-5,-0.21334 -0.10669,-0.32001 -0.32,-0.32 l -0.16,0.8 c -1.28002,-0.53334 -1.92002,-1.20001 -1.92,-2 -2e-5,-0.90667 0.26665,-1.38667 0.8,-1.44 0.0533,-1e-5 0.13331,-0.0267 0.24,-0.08 0.10665,-10e-6 0.21331,-10e-6 0.32,0 0.10665,-10e-6 0.21331,-10e-6 0.32,0 0.10665,0.0533 0.21331,0.08 0.32,0.08 0.0533,-1e-5 0.50665,0.08 1.36,0.24 0.90664,0.15999 2.21331,0.45333 3.92,0.88 3.7333,0.90666 6.8533,1.41332 9.36,1.52 3.89329,-0.0533 6.74662,-1.30668 8.56,-3.76 0.74662,-0.90667 1.27995,-2 1.6,-3.28 0.37329,-1.22667 0.55995,-2.61333 0.56,-4.16 -5e-5,-0.85333 -0.0267,-1.70666 -0.08,-2.56 -0.0534,-0.85333 -0.21338,-1.67999 -0.48,-2.48 l 0,0.08 c -0.26671,-0.69333 -0.50671,-1.25333 -0.72,-1.68 -0.16004,-0.47999 -0.34671,-0.93332 -0.56,-1.36 l -37.52,0 c -0.48001,1e-5 -1.09334,-0.29332 -1.84,-0.880003 -0.26667,-0.266653 -0.4,-0.613319 -0.4,-1.04 0,-0.693318 0.16,-1.199984 0.48,-1.52 l 0,0.08 c 0.21333,-0.319984 0.55999,-0.479984 1.04,-0.48 l 35.28,0 c -1.06671,-0.853316 -2.85337,-1.999982 -5.36,-3.44 l 0.08,0 c -2.5067,-1.386646 -3.76003,-2.666644 -3.76,-3.84 -3e-5,-0.639976 0.50663,-1.386642 1.52,-2.24 1.27996,-0.853307 2.90663,-1.519973 4.88,-2 l -0.08,0 c 0.21329,-0.106639 0.39996,-0.159972 0.56,-0.16 0.21329,-0.0533 0.42663,-0.133305 0.64,-0.24 1.75996,-0.533305 3.59996,-1.173304 5.52,-1.92 2.34662,-0.799969 4.26662,-1.493302 5.76,-2.08 1.54661,-0.586634 2.66661,-1.039967 3.36,-1.36 0.21328,-0.106633 0.45328,-0.186633 0.72,-0.24 0.26661,-0.106633 0.58661,-0.213299 0.96,-0.32 l -0.08,0 c 0.69328,-0.266632 1.30661,-0.479965 1.84,-0.64 0.58661,-0.213298 0.87994,-0.506631 0.88,-0.88 -6e-5,-0.0533 -0.13339,-0.159964 -0.4,-0.32 l 0,0.08 c -0.42672,-0.159964 -0.74672,-0.239964 -0.96,-0.24 l -41.36,0 c -0.48002,3.6e-5 -0.90668,-0.18663 -1.28,-0.56 l 0.08,0 c -0.42668,-0.26663 -0.64001,-0.693296 -0.64,-1.28"
         id="path4477"
         sodipodi:nodetypes="cccccssccccccscccccccccsccccsccscccsscccsccsssssssccccssccccccsccccccscccscccsccccsccccccc"
         style="stroke-width:1.74259641999999992;stroke-miterlimit:4;stroke-dasharray:none;fill:#343434;fill-opacity:1;stroke:#343434;stroke-opacity:1" />
    </g>
    <g
       style="font-size:73.45361327999999901px;font-style:normal;font-variant:normal;font-weight:normal;font-stretch:normal;text-align:start;line-height:125%;writing-mode:lr-tb;text-anchor:start;fill:#343434;fill-opacity:1;stroke:#343434;stroke-width:1.60000000000000009;stroke-miterlimit:4;stroke-opacity:1;font-family:Baekmuk Gulim;-inkscape-font-specification:Baekmuk Gulim;stroke-dasharray:none"
       id="text2816-5"
       transform="translate(37.788498,46)">
      <path
         d="m 84.077251,17.925116 c 0.930404,-0.930366 1.836331,-1.395572 2.717784,-1.395619 l 24.533505,0 0,-4.921392 c -3e-5,-0.440669 0.0979,-0.758968 0.29382,-0.954897 0.24481,-0.195823 0.46517,-0.34273 0.66108,-0.440722 0.19584,-0.146854 0.4162,-0.2203071 0.66108,-0.2203605 0.48965,5.34e-5 0.93038,0.2204145 1.32217,0.6610825 0.2448,0.391805 0.36723,0.783557 0.36726,1.175258 l 0,4.701031 23.65207,0 c 0.97932,4.7e-5 1.81179,0.195923 2.49742,0.587629 0.73447,0.391798 1.37107,0.930458 1.90979,1.615979 0.97932,1.322209 1.46901,2.987156 1.46908,4.994846 -7e-5,1.469111 -0.24492,3.109573 -0.73454,4.921392 -0.7346,2.742301 -1.59156,4.113433 -2.57088,4.113403 -0.44078,3e-5 -0.80805,-0.146877 -1.1018,-0.440722 l 0.0735,0 c -0.44078,-0.342752 -0.66114,-0.783473 -0.66108,-1.322165 l 0.73454,0 c -7e-5,-0.293782 -7e-5,-0.758988 0,-1.395619 -7e-5,-0.685532 0.0244,-1.077285 0.0735,-1.175258 0.24478,-0.881407 0.44066,-1.689396 0.58763,-2.423969 0.14684,-0.734498 0.2203,-1.444549 0.22036,-2.130155 -6e-5,-1.175217 -0.34285,-2.154597 -1.02835,-2.938144 l 0,0.07345 c -0.78357,-0.783463 -1.54259,-1.175215 -2.27706,-1.175258 l -48.846655,0 c -0.391764,4.3e-5 -0.881455,0.14695 -1.469072,0.440721 l 0.07345,0 c -0.685578,0.391796 -1.028361,0.808032 -1.028351,1.248712 l 0,8.520619 c -1e-5,0.489724 -0.146917,0.881476 -0.440722,1.175258 l 0,-0.07345 c -0.391761,0.440754 -0.832483,0.661114 -1.322165,0.661083 -0.489698,3.1e-5 -0.930419,-0.342752 -1.322165,-1.028351 l 0,0.146907 c -0.244852,-0.195843 -0.416243,-0.489657 -0.514175,-0.881443 l 0,-8.667526 c -6e-6,-1.322122 0.489684,-2.472894 1.469072,-3.45232"
         id="path4474"
         sodipodi:nodetypes="ccccsssccccccscsccccscssccccccccccsccccc"
         style="stroke-width:1.60000000000000009;stroke-miterlimit:4;stroke-dasharray:none;fill:#343434;fill-opacity:1;stroke:#343434;stroke-opacity:1" />
    </g>
  </g>
</svg>
